<svg xmlns="http://www.w3.org/2000/svg" xmlns:svg="http://www.w3.org/2000/svg" id="svg2" width="476.829" height="112.331" x="0" y="0" version="1.1" viewBox="0 0 476.829 112.331"><metadata id="metadata146"/><defs id="defs4"><linearGradient id="Gradient_1" x1="231" x2="231" y1="68" y2="68" gradientTransform="translate(-2,-25.888)" gradientUnits="userSpaceOnUse"><stop id="stop7" offset=".324" stop-color="#FFF"/><stop id="stop9" offset="1" stop-color="#000"/></linearGradient></defs><path style="fill:#89c263" id="path12" d="m 208.813,0 73.714,0 c 6.628,0 12,5.373 12,12 l 0,55.951 c 0,6.627 -5.372,12 -12,12 l -73.714,0 c -6.628,0 -12,-5.373 -12,-12 l 0,-55.951 c 0,-6.627 5.372,-12 12,-12 z"/><g id="g14" transform="translate(-2,-25.888)"><path style="fill:#fff" id="path16" d="m 378.586,42.877 99.233,0 0,83.734 -99.233,0 0,-83.734 z"/><path style="fill-opacity:0;stroke:#6cb33e;stroke-width:2" id="path18" d="m 378.586,127.67239 0,-76.159559 0,-7.756868 99.233,0.182426 0,83.734001"/></g><g id="g20" transform="translate(-2,-25.888)"><text id="tspan4201" transform="translate(247.67,65.863)"><tspan style="font-size:15px;font-family:GillSans;fill:#fff" id="tspan23" x="-34.569" y="-12" font-size="15">Business</tspan> <tspan style="font-size:15px;font-family:GillSans;fill:#fff" id="tspan25" x="-34.569" y="5" font-size="15">Intelligence</tspan> <tspan style="font-size:15px;font-family:GillSans;fill:#fff" id="tspan27" x="-34.569" y="22" font-size="15">Connector</tspan></text></g><g id="g29" transform="translate(-2,-25.888)"><g id="path17810"><path style="fill:#358ec4" id="path32" d="M 130.85,58.881 192.791,42.284"/><path style="fill-opacity:0;stroke:#358ec4;stroke-width:3.60599995;stroke-miterlimit:10" id="path34" stroke-miterlimit="10" d="M 130.85,58.881 192.791,42.284"/></g><g id="path17832"><path style="fill:#358ec4" id="path37" d="M 124.825,60.495 135.009,50.3 138.742,64.232 124.825,60.495 Z"/><path style="fill-opacity:0;stroke:#358ec4;stroke-width:.40000001" id="path39" d="M 124.825,60.495 135.009,50.3 138.742,64.232 124.825,60.495 Z"/></g></g><text id="tspan17836" x="143.623" y="53.67" transform="matrix(0.96588555,-0.25896931,0.25896931,0.96588555,0,0)" style="font-size:12.00142193px"><tspan style="font-size:15.00177765px;font-family:GillSans;fill:#2a86c0" id="tspan42" x="120.624" y="58.67" font-size="15">schema</tspan></text><g id="g44" transform="translate(-2,-25.888)"><g id="path17810-9"><path style="fill:#6cb33f" id="path47" d="M 124.825,86.452 186.766,69.855"/><path style="fill-opacity:0;stroke:#6cb33f;stroke-width:3.60599995;stroke-linecap:square;stroke-miterlimit:10" id="path49" stroke-miterlimit="10" d="M 124.825,86.452 186.766,69.855"/></g><g id="path17685"><path style="fill:#6cb33f" id="path52" d="m 192.791,68.24 -10.184,10.195 -3.733,-13.931 13.917,3.736 z"/><path style="fill-opacity:0;stroke:#6cb33f;stroke-width:.40000001;stroke-linecap:square;stroke-miterlimit:10" id="path54" stroke-miterlimit="10" d="m 192.791,68.24 -10.184,10.195 -3.733,-13.931 13.917,3.736 z"/></g></g><text id="tspan19197" x="137.319" y="77.181" transform="matrix(0.96588555,-0.25896931,0.25896931,0.96588555,0,0)" style="font-size:12.00142193px"><tspan style="font-size:15.00177765px;font-family:GillSans;fill:#6cb33f" id="tspan57" x="114.631" y="82.182" font-size="15">queries</tspan></text><g id="g59" transform="translate(-2,-25.888)"><g id="path17810-2"><path style="fill:#358ec4" id="path62" d="M 130.85,108.418 192.791,91.821"/><path style="fill-opacity:0;stroke:#358ec4;stroke-width:3.60599995;stroke-linecap:square;stroke-miterlimit:10" id="path64" stroke-miterlimit="10" d="M 130.85,108.418 192.791,91.821"/></g><g id="path17832-7"><path style="fill:#358ec4" id="path67" d="m 124.825,110.032 10.184,-10.194 3.733,13.931 -13.917,-3.737 z"/><path style="fill-opacity:0;stroke:#358ec4;stroke-width:.40000001;stroke-linecap:square;stroke-miterlimit:10" id="path69" stroke-miterlimit="10" d="m 124.825,110.032 10.184,-10.194 3.733,13.931 -13.917,-3.737 z"/></g></g><text id="tspan17836-46" x="131.026" y="100.651" transform="matrix(0.96588555,-0.25896931,0.25896931,0.96588555,0,0)" style="font-size:12.00142193px"><tspan style="font-size:15.00177765px;font-family:GillSans;fill:#2a86c0" id="tspan72" x="100.223" y="105.652" font-size="15">responses</tspan></text><g id="g74" transform="translate(-2,-25.888)"><g id="path17810-9-1"><path style="fill:#6cb33f" id="path77" d="m 303.295,60.334 61.941,16.597"/><path style="fill-opacity:0;stroke:#6cb33f;stroke-width:3.60599995;stroke-linecap:square;stroke-miterlimit:10" id="path79" stroke-miterlimit="10" d="m 303.295,60.334 61.941,16.597"/></g><g id="path17685-5"><path style="fill:#6cb33f" id="path82" d="m 371.261,78.546 -13.917,3.736 3.733,-13.931 10.184,10.195 z"/><path style="fill-opacity:0;stroke:#6cb33f;stroke-width:.40000001;stroke-linecap:square;stroke-miterlimit:10" id="path84" stroke-miterlimit="10" d="m 371.261,78.546 -13.917,3.736 3.733,-13.931 10.184,10.195 z"/></g></g><text id="tspan19197-8" x="336.283" y="-58.109" transform="matrix(0.96588555,0.25896931,-0.25896931,0.96588555,0,0)" style="font-size:12.00142193px"><tspan style="font-size:15.00177765px;font-family:GillSans;fill:#6cb33f" id="tspan87" x="313.595" y="-53.109" font-size="15">queries</tspan></text><g id="g89" transform="translate(-2,-25.888)"><g id="path17810-2-9"><path style="fill:#358ec4" id="path92" d="m 307.32,92.246 61.941,16.597"/><path style="fill-opacity:0;stroke:#358ec4;stroke-width:3.60599995;stroke-linecap:square;stroke-miterlimit:10" id="path94" stroke-miterlimit="10" d="m 307.32,92.246 61.941,16.597"/></g><g id="path17832-7-3"><path style="fill:#358ec4" id="path97" d="m 301.295,90.631 13.917,-3.736 -3.733,13.931 -10.184,-10.195 z"/><path style="fill-opacity:0;stroke:#358ec4;stroke-width:.40000001;stroke-linecap:square;stroke-miterlimit:10" id="path99" stroke-miterlimit="10" d="m 301.295,90.631 13.917,-3.736 -3.733,13.931 -10.184,-10.195 z"/></g></g><text id="tspan17836-46-6" x="341.643" y="-28.149" transform="matrix(0.96588555,0.25896931,-0.25896931,0.96588555,0,0)" style="font-size:12.00142193px"><tspan style="font-size:15.00177765px;font-family:GillSans;fill:#2a86c0" id="tspan102" x="310.839" y="-23.149" font-size="15">responses</tspan></text><g id="g104" transform="translate(-2,-25.888)"><path style="fill:#fff" id="path106" d="m 17.215,52.283 82.984,0 c 7.851,0 14.215,7.368 14.215,16.456 l 0,52.023 c 0,9.089 -6.364,16.457 -14.215,16.457 l -82.984,0 C 9.364,137.219 3,129.851 3,120.762 L 3,68.739 C 3,59.651 9.364,52.283 17.215,52.283 Z"/><path style="fill-opacity:0;stroke:#358ec4;stroke-width:2" id="path108" d="m 17.215,52.283 82.984,0 c 7.851,0 14.215,7.368 14.215,16.456 l 0,52.023 c 0,9.089 -6.364,16.457 -14.215,16.457 l -82.984,0 C 9.364,137.219 3,129.851 3,120.762 L 3,68.739 C 3,59.651 9.364,52.283 17.215,52.283 Z"/></g><text id="text110" x="56.707" y="68.863"><tspan style="font-size:18px;font-family:GillSans;fill:#4b4b4b" id="tspan112" x="13.181" y="54.003" font-size="18">Business</tspan> <tspan style="font-size:18px;font-family:GillSans;fill:#4b4b4b" id="tspan114" x="13.181" y="75.003" font-size="18">Intelligence</tspan> <tspan style="font-size:18px;font-family:GillSans;fill:#4b4b4b" id="tspan116" x="13.181" y="96.003" font-size="18">Tool</tspan></text><text id="text118" x="432.293" y="68.863"><tspan style="font-size:18px;font-family:GillSans;fill:#4b4b4b" id="tspan120" x="388.767" y="54.003" font-size="18">MongoDB</tspan></text><g id="g122" transform="translate(-2,-25.888)"><path style="fill:#fff" id="path124" d="m 428.202,48.471 c -27.402,0 -49.616,-2.504 -49.616,-5.594 0,-3.089 22.214,-5.593 49.616,-5.593 27.403,0 49.617,2.504 49.617,5.593 0,3.09 -22.214,5.594 -49.617,5.594 z"/><path style="fill-opacity:0;stroke:#6cb33e;stroke-width:2" id="path126" d="m 428.202,48.471 c -27.402,0 -49.616,-2.504 -49.616,-5.594 0,-3.089 22.214,-5.593 49.616,-5.593 27.403,0 49.617,2.504 49.617,5.593 0,3.09 -22.214,5.594 -49.617,5.594 z"/></g><path style="fill:url(#Gradient_1)" id="path142" d="m 229,42.112 0,0"/><path id="path3561" d="m 390.9545,95.72014 c 1.83445,-0.18978 6.39748,-0.54085 9.45377,-0.72734 16.99028,-1.03674 38.23153,-0.97703 54.93686,0.15444 3.71865,0.25187 9.34072,0.73049 9.17583,0.78545 -0.0678,0.0227 -2.3736,-0.10912 -3.94865,-0.19988 -19.89727,-1.14478 -51.82421,-0.90077 -70.68462,0.27029 -2.19528,0.13628 -2.7634,0.10304 -1.15547,-0.059 z" style="fill:#6cb33e;fill-opacity:1"/><path id="path4365" d="m 475.82663,101.66438 a 49.622105,4.6823063 0 0 1 -24.81105,4.055 49.622105,4.6823063 0 0 1 -49.6221,0 49.622105,4.6823063 0 0 1 -24.81106,-4.055" style="fill:none;fill-opacity:1;stroke:#6cb33e;stroke-width:2.00538588;stroke-miterlimit:4;stroke-dasharray:none;stroke-opacity:1"/></svg>